# xmcd
#
# Track frame offsets:
#	150
#	15732
#	35623
#	52412
#	74762
#	92756
#	110055
#	124322
#	140357
#	160073
#	175405
#	197523
#	218258
#	238578
#	259192
#	280887
#
# Disc length: 3924 seconds
#
# Revision: 0
# Processed by: cddbd v1.4PL0 Copyright (c) Steve Scherf et al.
# Submitted via: dBpowerAMP V4.0
#
DISCID=f20f5210
DTITLE=Mystque Jackson - Poo mix cd
DYEAR=2003
DGENRE=Rap
TTITLE0=droi n tha wind
TTITLE1=un
TTITLE2=bj
TTITLE3=keta
TTITLE4=poo
TTITLE5=nell
TTITLE6=buck
TTITLE7=larry
TTITLE8=shady
TTITLE9=da da
TTITLE10=keyal
TTITLE11=uma
TTITLE12=www
TTITLE13=jayvion
TTITLE14=jackson
TTITLE15=hill
EXTD=
EXTT0=
EXTT1=
EXTT2=
EXTT3=
EXTT4=
EXTT5=
EXTT6=
EXTT7=
EXTT8=
EXTT9=
EXTT10=
EXTT11=
EXTT12=
EXTT13=
EXTT14=
EXTT15=
PLAYORDER=
